<svg xmlns="http://www.w3.org/2000/svg" viewBox="0 0 520 490" fill="none" role="img" aria-label="VayuPress mark">
  <defs>
    <linearGradient id="wg" x1="0" y1="0" x2="1" y2="0.6" gradientUnits="objectBoundingBox">
      <stop offset="0%" stop-color="#3b82f6"/>
      <stop offset="55%" stop-color="#1d5fd4"/>
      <stop offset="100%" stop-color="#1746a2"/>
    </linearGradient>
    <linearGradient id="wg2" x1="0" y1="0" x2="1" y2="0" gradientUnits="objectBoundingBox">
      <stop offset="0%" stop-color="#2563eb"/>
      <stop offset="100%" stop-color="#60a5fa"/>
    </linearGradient>
  </defs>

  <!-- ── Left arm of V ── -->
  <path fill="white"
    d="M 36 44 L 174 44 L 266 430 L 214 430 Z"/>

  <!-- ── Right lower arm of V (below wind streaks) ── -->
  <path fill="white"
    d="M 214 430 L 266 430 L 340 234 L 296 208 Z"/>

  <!-- ── Wind streak 1 (top, widest) ── -->
  <path fill="url(#wg)"
    d="M 302 46
       C 344 36, 402 40, 474 60
       C 492 66, 494 80, 480 90
       C 456 98, 398 94, 334 110
       C 316 115, 303 107, 308 96
       C 338 86, 392 84, 452 74
       C 416 64, 358 60, 302 68
       C 294 58, 298 48, 302 46 Z"/>

  <!-- ── Wind streak 2 (middle) ── -->
  <path fill="url(#wg)"
    d="M 312 122
       C 350 112, 408 115, 476 136
       C 494 142, 494 157, 480 165
       C 454 173, 394 168, 328 184
       C 310 189, 298 180, 304 168
       C 334 158, 386 155, 448 148
       C 412 138, 356 134, 308 144
       C 300 133, 308 124, 312 122 Z"/>

  <!-- ── Wind streak 3 (bottom) ── -->
  <path fill="url(#wg)"
    d="M 322 196
       C 356 186, 412 190, 478 212
       C 496 218, 494 234, 478 242
       C 450 250, 390 244, 324 260
       C 306 265, 296 256, 302 244
       C 334 234, 386 230, 446 224
       C 412 214, 358 210, 316 220
       C 306 208, 316 198, 322 196 Z"/>
</svg>
